<mxfile host="app.diagrams.net" modified="2024-06-20T11:23:51.801Z" agent="Mozilla/5.0 (Macintosh; Intel Mac OS X 10_15_7) AppleWebKit/605.1.15 (KHTML, like Gecko) Version/17.4.1 Safari/605.1.15" etag="LQ5_bEnA5z98saFZ2a4w" version="24.5.3" type="device">
  <diagram name="Seite-1" id="8Ey9ggm2cK-5IuhsqDdw">
    <mxGraphModel dx="615" dy="403" grid="1" gridSize="10" guides="1" tooltips="1" connect="1" arrows="1" fold="1" page="1" pageScale="1" pageWidth="827" pageHeight="1169" math="0" shadow="0">
      <root>
        <mxCell id="0" />
        <mxCell id="1" parent="0" />
        <mxCell id="FYB1tNpZg5OryoRXFsR8-1" value="&lt;span style=&quot;text-align: start; font-size: 14px;&quot; class=&quot;mopen&quot;&gt;(&lt;/span&gt;&lt;span style=&quot;text-align: start; font-size: 14px;&quot; class=&quot;mord&quot;&gt;&lt;span style=&quot;font-size: 14px;&quot; class=&quot;mord mathnormal&quot;&gt;q&lt;/span&gt;&lt;span style=&quot;font-size: 14px;&quot; class=&quot;msupsub&quot;&gt;&lt;span style=&quot;font-size: 14px;&quot; class=&quot;vlist-t vlist-t2&quot;&gt;&lt;span style=&quot;font-size: 14px;&quot; class=&quot;vlist-r&quot;&gt;&lt;span style=&quot;font-size: 14px;&quot; class=&quot;vlist&quot;&gt;&lt;span style=&quot;font-size: 14px;&quot; class=&quot;pstrut&quot;&gt;&lt;/span&gt;&lt;span style=&quot;font-size: 14px;&quot; class=&quot;sizing reset-size6 size3 mtight&quot;&gt;&lt;span style=&quot;font-size: 14px;&quot; class=&quot;mord mtight&quot;&gt;0&lt;/span&gt;&lt;/span&gt;&lt;/span&gt;&lt;span style=&quot;font-size: 14px;&quot; class=&quot;vlist-s&quot;&gt;​&lt;/span&gt;&lt;/span&gt;&lt;span style=&quot;font-size: 14px;&quot; class=&quot;vlist-r&quot;&gt;&lt;span style=&quot;font-size: 14px;&quot; class=&quot;vlist&quot;&gt;&lt;/span&gt;&lt;/span&gt;&lt;/span&gt;&lt;/span&gt;&lt;/span&gt;&lt;span style=&quot;text-align: start; font-size: 14px;&quot; class=&quot;mpunct&quot;&gt;,&lt;/span&gt;&lt;span style=&quot;text-align: start; font-size: 14px;&quot; class=&quot;mspace&quot;&gt;&lt;/span&gt;&lt;span style=&quot;text-align: start; font-size: 14px;&quot; class=&quot;mord&quot;&gt;0&lt;/span&gt;&lt;span style=&quot;text-align: start; font-size: 14px;&quot; class=&quot;mclose&quot;&gt;)&lt;/span&gt;" style="ellipse;whiteSpace=wrap;html=1;fontSize=14;" parent="1" vertex="1">
          <mxGeometry x="320" y="440" width="40" height="40" as="geometry" />
        </mxCell>
        <mxCell id="FYB1tNpZg5OryoRXFsR8-2" value="" style="endArrow=classic;html=1;rounded=0;startArrow=baseDash;startFill=0;" parent="1" target="FYB1tNpZg5OryoRXFsR8-1" edge="1">
          <mxGeometry width="50" height="50" relative="1" as="geometry">
            <mxPoint x="340" y="420" as="sourcePoint" />
            <mxPoint x="240" y="360" as="targetPoint" />
          </mxGeometry>
        </mxCell>
        <mxCell id="FYB1tNpZg5OryoRXFsR8-6" value="&lt;span style=&quot;text-align: start;&quot; class=&quot;mopen&quot;&gt;(&lt;/span&gt;&lt;span style=&quot;text-align: start;&quot; class=&quot;mord&quot;&gt;&lt;span class=&quot;mord mathnormal&quot;&gt;q&lt;/span&gt;&lt;span class=&quot;msupsub&quot;&gt;&lt;span class=&quot;vlist-t vlist-t2&quot;&gt;&lt;span class=&quot;vlist-r&quot;&gt;&lt;span class=&quot;vlist&quot;&gt;&lt;span class=&quot;pstrut&quot;&gt;&lt;/span&gt;&lt;span class=&quot;sizing reset-size6 size3 mtight&quot;&gt;&lt;span class=&quot;mord mtight&quot;&gt;0&lt;/span&gt;&lt;/span&gt;&lt;/span&gt;&lt;span class=&quot;vlist-s&quot;&gt;​&lt;/span&gt;&lt;/span&gt;&lt;span class=&quot;vlist-r&quot;&gt;&lt;span class=&quot;vlist&quot;&gt;&lt;/span&gt;&lt;/span&gt;&lt;/span&gt;&lt;/span&gt;&lt;/span&gt;&lt;span style=&quot;text-align: start;&quot; class=&quot;mpunct&quot;&gt;,&lt;/span&gt;&lt;span style=&quot;text-align: start;&quot; class=&quot;mspace&quot;&gt;&lt;/span&gt;&lt;span style=&quot;text-align: start;&quot; class=&quot;mord&quot;&gt;1&lt;/span&gt;&lt;span style=&quot;text-align: start;&quot; class=&quot;mclose&quot;&gt;)&lt;/span&gt;" style="ellipse;whiteSpace=wrap;html=1;fontSize=14;" parent="1" vertex="1">
          <mxGeometry x="510" y="500" width="40" height="40" as="geometry" />
        </mxCell>
        <mxCell id="FYB1tNpZg5OryoRXFsR8-8" value="&lt;span class=&quot;mopen&quot; style=&quot;text-align: start; font-size: 13px;&quot;&gt;(&lt;/span&gt;&lt;span class=&quot;mord&quot; style=&quot;text-align: start; font-size: 13px;&quot;&gt;&lt;span class=&quot;mord mathnormal&quot; style=&quot;font-size: 13px;&quot;&gt;q&lt;/span&gt;&lt;span class=&quot;msupsub&quot; style=&quot;font-size: 13px;&quot;&gt;&lt;span class=&quot;vlist-t vlist-t2&quot; style=&quot;font-size: 13px;&quot;&gt;&lt;span class=&quot;vlist-r&quot; style=&quot;font-size: 13px;&quot;&gt;&lt;span class=&quot;vlist&quot; style=&quot;font-size: 13px;&quot;&gt;&lt;span class=&quot;pstrut&quot; style=&quot;font-size: 13px;&quot;&gt;&lt;/span&gt;&lt;span class=&quot;sizing reset-size6 size3 mtight&quot; style=&quot;font-size: 13px;&quot;&gt;&lt;span class=&quot;mord mtight&quot; style=&quot;font-size: 13px;&quot;&gt;0&lt;/span&gt;&lt;/span&gt;&lt;/span&gt;&lt;span class=&quot;vlist-s&quot; style=&quot;font-size: 13px;&quot;&gt;​&lt;/span&gt;&lt;/span&gt;&lt;span class=&quot;vlist-r&quot; style=&quot;font-size: 13px;&quot;&gt;&lt;span class=&quot;vlist&quot; style=&quot;font-size: 13px;&quot;&gt;&lt;/span&gt;&lt;/span&gt;&lt;/span&gt;&lt;/span&gt;&lt;/span&gt;&lt;span class=&quot;mpunct&quot; style=&quot;text-align: start; font-size: 13px;&quot;&gt;,&lt;/span&gt;&lt;span class=&quot;mspace&quot; style=&quot;text-align: start; font-size: 13px;&quot;&gt;&lt;/span&gt;&lt;span class=&quot;mord&quot; style=&quot;text-align: start; font-size: 13px;&quot;&gt;2&lt;/span&gt;&lt;span class=&quot;mclose&quot; style=&quot;text-align: start; font-size: 13px;&quot;&gt;)&lt;/span&gt;" style="ellipse;whiteSpace=wrap;html=1;fontSize=13;" parent="1" vertex="1">
          <mxGeometry x="600" y="440" width="40" height="40" as="geometry" />
        </mxCell>
        <mxCell id="FYB1tNpZg5OryoRXFsR8-13" value="" style="ellipse;whiteSpace=wrap;html=1;fillColor=none;fontSize=18;" parent="1" vertex="1">
          <mxGeometry x="602.5" y="442.5" width="35" height="35" as="geometry" />
        </mxCell>
        <mxCell id="vbDR-SipcPACqgHt5hzr-1" value="&lt;span style=&quot;text-align: start; font-size: 14px;&quot; class=&quot;mopen&quot;&gt;(&lt;/span&gt;&lt;span style=&quot;text-align: start; font-size: 14px;&quot; class=&quot;mord&quot;&gt;&lt;span style=&quot;font-size: 14px;&quot; class=&quot;mord mathnormal&quot;&gt;q1&lt;/span&gt;&lt;span style=&quot;font-size: 14px;&quot; class=&quot;msupsub&quot;&gt;&lt;span style=&quot;font-size: 14px;&quot; class=&quot;vlist-t vlist-t2&quot;&gt;&lt;span style=&quot;font-size: 14px;&quot; class=&quot;vlist-r&quot;&gt;&lt;span style=&quot;font-size: 14px;&quot; class=&quot;vlist-s&quot;&gt;​&lt;/span&gt;&lt;/span&gt;&lt;span style=&quot;font-size: 14px;&quot; class=&quot;vlist-r&quot;&gt;&lt;span style=&quot;font-size: 14px;&quot; class=&quot;vlist&quot;&gt;&lt;/span&gt;&lt;/span&gt;&lt;/span&gt;&lt;/span&gt;&lt;/span&gt;&lt;span style=&quot;text-align: start; font-size: 14px;&quot; class=&quot;mpunct&quot;&gt;,&lt;/span&gt;&lt;span style=&quot;text-align: start; font-size: 14px;&quot; class=&quot;mspace&quot;&gt;&lt;/span&gt;&lt;span style=&quot;text-align: start; font-size: 14px;&quot; class=&quot;mord&quot;&gt;0&lt;/span&gt;&lt;span style=&quot;text-align: start; font-size: 14px;&quot; class=&quot;mclose&quot;&gt;)&lt;/span&gt;" style="ellipse;whiteSpace=wrap;html=1;fontSize=14;" vertex="1" parent="1">
          <mxGeometry x="320" y="560" width="40" height="40" as="geometry" />
        </mxCell>
        <mxCell id="vbDR-SipcPACqgHt5hzr-2" value="&lt;span style=&quot;text-align: start;&quot; class=&quot;mopen&quot;&gt;(&lt;/span&gt;&lt;span style=&quot;text-align: start;&quot; class=&quot;mord&quot;&gt;&lt;span class=&quot;mord mathnormal&quot;&gt;q1&lt;/span&gt;&lt;span class=&quot;msupsub&quot;&gt;&lt;span class=&quot;vlist-t vlist-t2&quot;&gt;&lt;span class=&quot;vlist-r&quot;&gt;&lt;span class=&quot;vlist-s&quot;&gt;​&lt;/span&gt;&lt;/span&gt;&lt;span class=&quot;vlist-r&quot;&gt;&lt;span class=&quot;vlist&quot;&gt;&lt;/span&gt;&lt;/span&gt;&lt;/span&gt;&lt;/span&gt;&lt;/span&gt;&lt;span style=&quot;text-align: start;&quot; class=&quot;mpunct&quot;&gt;,&lt;/span&gt;&lt;span style=&quot;text-align: start;&quot; class=&quot;mspace&quot;&gt;&lt;/span&gt;&lt;span style=&quot;text-align: start;&quot; class=&quot;mord&quot;&gt;1&lt;/span&gt;&lt;span style=&quot;text-align: start;&quot; class=&quot;mclose&quot;&gt;)&lt;/span&gt;" style="ellipse;whiteSpace=wrap;html=1;fontSize=14;" vertex="1" parent="1">
          <mxGeometry x="480" y="440" width="40" height="40" as="geometry" />
        </mxCell>
        <mxCell id="vbDR-SipcPACqgHt5hzr-3" value="&lt;span style=&quot;text-align: start;&quot; class=&quot;mopen&quot;&gt;(&lt;/span&gt;&lt;span style=&quot;text-align: start;&quot; class=&quot;mord&quot;&gt;&lt;span class=&quot;mord mathnormal&quot;&gt;q1&lt;/span&gt;&lt;span class=&quot;msupsub&quot;&gt;&lt;span class=&quot;vlist-t vlist-t2&quot;&gt;&lt;span class=&quot;vlist-r&quot;&gt;&lt;span class=&quot;vlist-s&quot;&gt;​&lt;/span&gt;&lt;/span&gt;&lt;span class=&quot;vlist-r&quot;&gt;&lt;span class=&quot;vlist&quot;&gt;&lt;/span&gt;&lt;/span&gt;&lt;/span&gt;&lt;/span&gt;&lt;/span&gt;&lt;span style=&quot;text-align: start;&quot; class=&quot;mpunct&quot;&gt;,&lt;/span&gt;&lt;span style=&quot;text-align: start;&quot; class=&quot;mspace&quot;&gt;&lt;/span&gt;&lt;span style=&quot;text-align: start;&quot; class=&quot;mord&quot;&gt;2&lt;/span&gt;&lt;span style=&quot;text-align: start;&quot; class=&quot;mclose&quot;&gt;)&lt;/span&gt;" style="ellipse;whiteSpace=wrap;html=1;fontSize=14;" vertex="1" parent="1">
          <mxGeometry x="600" y="560" width="40" height="40" as="geometry" />
        </mxCell>
        <mxCell id="vbDR-SipcPACqgHt5hzr-4" value="&lt;span style=&quot;text-align: start; font-size: 14px;&quot; class=&quot;mopen&quot;&gt;(&lt;/span&gt;&lt;span style=&quot;text-align: start; font-size: 14px;&quot; class=&quot;mord&quot;&gt;&lt;span style=&quot;font-size: 14px;&quot; class=&quot;mord mathnormal&quot;&gt;q2&lt;/span&gt;&lt;span style=&quot;font-size: 14px;&quot; class=&quot;msupsub&quot;&gt;&lt;span style=&quot;font-size: 14px;&quot; class=&quot;vlist-t vlist-t2&quot;&gt;&lt;span style=&quot;font-size: 14px;&quot; class=&quot;vlist-r&quot;&gt;&lt;span style=&quot;font-size: 14px;&quot; class=&quot;vlist-s&quot;&gt;​&lt;/span&gt;&lt;/span&gt;&lt;span style=&quot;font-size: 14px;&quot; class=&quot;vlist-r&quot;&gt;&lt;span style=&quot;font-size: 14px;&quot; class=&quot;vlist&quot;&gt;&lt;/span&gt;&lt;/span&gt;&lt;/span&gt;&lt;/span&gt;&lt;/span&gt;&lt;span style=&quot;text-align: start; font-size: 14px;&quot; class=&quot;mpunct&quot;&gt;,&lt;/span&gt;&lt;span style=&quot;text-align: start; font-size: 14px;&quot; class=&quot;mspace&quot;&gt;&lt;/span&gt;&lt;span style=&quot;text-align: start; font-size: 14px;&quot; class=&quot;mord&quot;&gt;0&lt;/span&gt;&lt;span style=&quot;text-align: start; font-size: 14px;&quot; class=&quot;mclose&quot;&gt;)&lt;/span&gt;" style="ellipse;whiteSpace=wrap;html=1;fontSize=14;" vertex="1" parent="1">
          <mxGeometry x="430" y="490" width="40" height="40" as="geometry" />
        </mxCell>
        <mxCell id="vbDR-SipcPACqgHt5hzr-5" value="&lt;span style=&quot;text-align: start;&quot; class=&quot;mopen&quot;&gt;(&lt;/span&gt;&lt;span style=&quot;text-align: start;&quot; class=&quot;mord&quot;&gt;&lt;span class=&quot;mord mathnormal&quot;&gt;q2&lt;/span&gt;&lt;span class=&quot;msupsub&quot;&gt;&lt;span class=&quot;vlist-t vlist-t2&quot;&gt;&lt;span class=&quot;vlist-r&quot;&gt;&lt;span class=&quot;vlist-s&quot;&gt;​&lt;/span&gt;&lt;/span&gt;&lt;span class=&quot;vlist-r&quot;&gt;&lt;span class=&quot;vlist&quot;&gt;&lt;/span&gt;&lt;/span&gt;&lt;/span&gt;&lt;/span&gt;&lt;/span&gt;&lt;span style=&quot;text-align: start;&quot; class=&quot;mpunct&quot;&gt;,&lt;/span&gt;&lt;span style=&quot;text-align: start;&quot; class=&quot;mspace&quot;&gt;&lt;/span&gt;&lt;span style=&quot;text-align: start;&quot; class=&quot;mord&quot;&gt;1&lt;/span&gt;&lt;span style=&quot;text-align: start;&quot; class=&quot;mclose&quot;&gt;)&lt;/span&gt;" style="ellipse;whiteSpace=wrap;html=1;fontSize=14;" vertex="1" parent="1">
          <mxGeometry x="420" y="560" width="40" height="40" as="geometry" />
        </mxCell>
        <mxCell id="vbDR-SipcPACqgHt5hzr-6" value="&lt;span style=&quot;text-align: start;&quot; class=&quot;mopen&quot;&gt;(&lt;/span&gt;&lt;span style=&quot;text-align: start;&quot; class=&quot;mord&quot;&gt;&lt;span class=&quot;mord mathnormal&quot;&gt;q2&lt;/span&gt;&lt;span class=&quot;msupsub&quot;&gt;&lt;span class=&quot;vlist-t vlist-t2&quot;&gt;&lt;span class=&quot;vlist-r&quot;&gt;&lt;span class=&quot;vlist-s&quot;&gt;​&lt;/span&gt;&lt;/span&gt;&lt;span class=&quot;vlist-r&quot;&gt;&lt;span class=&quot;vlist&quot;&gt;&lt;/span&gt;&lt;/span&gt;&lt;/span&gt;&lt;/span&gt;&lt;/span&gt;&lt;span style=&quot;text-align: start;&quot; class=&quot;mpunct&quot;&gt;,&lt;/span&gt;&lt;span style=&quot;text-align: start;&quot; class=&quot;mspace&quot;&gt;&lt;/span&gt;&lt;span style=&quot;text-align: start;&quot; class=&quot;mord&quot;&gt;2&lt;/span&gt;&lt;span style=&quot;text-align: start;&quot; class=&quot;mclose&quot;&gt;)&lt;/span&gt;" style="ellipse;whiteSpace=wrap;html=1;fontSize=14;" vertex="1" parent="1">
          <mxGeometry x="520" y="560" width="40" height="40" as="geometry" />
        </mxCell>
        <mxCell id="vbDR-SipcPACqgHt5hzr-7" value="&lt;font style=&quot;font-size: 14px;&quot;&gt;a&lt;/font&gt;" style="endArrow=classic;html=1;rounded=0;" edge="1" parent="1" source="FYB1tNpZg5OryoRXFsR8-1" target="vbDR-SipcPACqgHt5hzr-5">
          <mxGeometry width="50" height="50" relative="1" as="geometry">
            <mxPoint x="490" y="390" as="sourcePoint" />
            <mxPoint x="530.0000000000001" y="390" as="targetPoint" />
          </mxGeometry>
        </mxCell>
        <mxCell id="vbDR-SipcPACqgHt5hzr-8" value="&lt;font style=&quot;font-size: 14px;&quot;&gt;b&lt;/font&gt;" style="endArrow=classic;html=1;rounded=0;edgeStyle=orthogonalEdgeStyle;curved=1;" edge="1" parent="1" source="FYB1tNpZg5OryoRXFsR8-1" target="FYB1tNpZg5OryoRXFsR8-1">
          <mxGeometry width="50" height="50" relative="1" as="geometry">
            <mxPoint x="310" y="270" as="sourcePoint" />
            <mxPoint x="372" y="394" as="targetPoint" />
            <Array as="points">
              <mxPoint x="300" y="460" />
            </Array>
            <mxPoint as="offset" />
          </mxGeometry>
        </mxCell>
        <mxCell id="vbDR-SipcPACqgHt5hzr-9" value="&lt;font style=&quot;font-size: 14px;&quot;&gt;a,b&lt;/font&gt;" style="endArrow=classic;html=1;rounded=0;" edge="1" parent="1" source="vbDR-SipcPACqgHt5hzr-1" target="FYB1tNpZg5OryoRXFsR8-1">
          <mxGeometry width="50" height="50" relative="1" as="geometry">
            <mxPoint x="319" y="408" as="sourcePoint" />
            <mxPoint x="381" y="532" as="targetPoint" />
          </mxGeometry>
        </mxCell>
        <mxCell id="vbDR-SipcPACqgHt5hzr-10" value="&lt;font style=&quot;font-size: 14px;&quot;&gt;a&lt;/font&gt;" style="endArrow=classic;html=1;rounded=0;" edge="1" parent="1" source="vbDR-SipcPACqgHt5hzr-4" target="vbDR-SipcPACqgHt5hzr-2">
          <mxGeometry width="50" height="50" relative="1" as="geometry">
            <mxPoint x="452.2660377215236" y="481.8543345295909" as="sourcePoint" />
            <mxPoint x="381" y="492" as="targetPoint" />
          </mxGeometry>
        </mxCell>
        <mxCell id="vbDR-SipcPACqgHt5hzr-13" value="&lt;font style=&quot;font-size: 14px;&quot;&gt;b&lt;/font&gt;" style="endArrow=classic;html=1;rounded=0;edgeStyle=orthogonalEdgeStyle;curved=1;" edge="1" parent="1" source="vbDR-SipcPACqgHt5hzr-4" target="vbDR-SipcPACqgHt5hzr-4">
          <mxGeometry x="-0.0614" width="50" height="50" relative="1" as="geometry">
            <mxPoint x="459.99909226884705" y="530.0022580645161" as="sourcePoint" />
            <mxPoint x="461.63366596101235" y="546.2945553203375" as="targetPoint" />
            <Array as="points">
              <mxPoint x="460" y="546" />
              <mxPoint x="440" y="546" />
            </Array>
            <mxPoint as="offset" />
          </mxGeometry>
        </mxCell>
        <mxCell id="vbDR-SipcPACqgHt5hzr-14" value="&lt;font style=&quot;font-size: 14px;&quot;&gt;a&lt;/font&gt;" style="endArrow=classic;html=1;rounded=0;" edge="1" parent="1" source="vbDR-SipcPACqgHt5hzr-5" target="vbDR-SipcPACqgHt5hzr-1">
          <mxGeometry width="50" height="50" relative="1" as="geometry">
            <mxPoint x="324" y="536" as="sourcePoint" />
            <mxPoint x="376" y="484" as="targetPoint" />
          </mxGeometry>
        </mxCell>
        <mxCell id="vbDR-SipcPACqgHt5hzr-15" value="&lt;font style=&quot;font-size: 14px;&quot;&gt;b&lt;/font&gt;" style="endArrow=classic;html=1;rounded=0;" edge="1" parent="1" source="vbDR-SipcPACqgHt5hzr-5" target="vbDR-SipcPACqgHt5hzr-6">
          <mxGeometry width="50" height="50" relative="1" as="geometry">
            <mxPoint x="374" y="546" as="sourcePoint" />
            <mxPoint x="426" y="494" as="targetPoint" />
          </mxGeometry>
        </mxCell>
        <mxCell id="vbDR-SipcPACqgHt5hzr-16" value="&lt;font style=&quot;font-size: 14px;&quot;&gt;a&lt;/font&gt;" style="endArrow=classic;html=1;rounded=0;" edge="1" parent="1" source="FYB1tNpZg5OryoRXFsR8-6" target="vbDR-SipcPACqgHt5hzr-5">
          <mxGeometry width="50" height="50" relative="1" as="geometry">
            <mxPoint x="384" y="556" as="sourcePoint" />
            <mxPoint x="436" y="504" as="targetPoint" />
          </mxGeometry>
        </mxCell>
        <mxCell id="vbDR-SipcPACqgHt5hzr-17" value="&lt;font style=&quot;font-size: 14px;&quot;&gt;b&lt;/font&gt;" style="endArrow=classic;html=1;rounded=0;" edge="1" parent="1" source="FYB1tNpZg5OryoRXFsR8-6" target="FYB1tNpZg5OryoRXFsR8-8">
          <mxGeometry width="50" height="50" relative="1" as="geometry">
            <mxPoint x="558.7429210040732" y="483.02125281763233" as="sourcePoint" />
            <mxPoint x="480" y="339.76" as="targetPoint" />
          </mxGeometry>
        </mxCell>
        <mxCell id="vbDR-SipcPACqgHt5hzr-18" value="&lt;font style=&quot;font-size: 14px;&quot;&gt;a&lt;/font&gt;" style="endArrow=classic;html=1;rounded=0;" edge="1" parent="1" source="vbDR-SipcPACqgHt5hzr-2" target="FYB1tNpZg5OryoRXFsR8-1">
          <mxGeometry width="50" height="50" relative="1" as="geometry">
            <mxPoint x="324" y="496" as="sourcePoint" />
            <mxPoint x="376" y="444" as="targetPoint" />
          </mxGeometry>
        </mxCell>
        <mxCell id="vbDR-SipcPACqgHt5hzr-19" value="&lt;font style=&quot;font-size: 14px;&quot;&gt;b&lt;/font&gt;" style="endArrow=classic;html=1;rounded=0;" edge="1" parent="1" source="vbDR-SipcPACqgHt5hzr-2" target="FYB1tNpZg5OryoRXFsR8-8">
          <mxGeometry width="50" height="50" relative="1" as="geometry">
            <mxPoint x="410" y="350" as="sourcePoint" />
            <mxPoint x="450" y="350" as="targetPoint" />
          </mxGeometry>
        </mxCell>
        <mxCell id="vbDR-SipcPACqgHt5hzr-20" value="&lt;font style=&quot;font-size: 14px;&quot;&gt;b&lt;/font&gt;" style="endArrow=classic;html=1;rounded=0;edgeStyle=orthogonalEdgeStyle;curved=1;" edge="1" parent="1" source="vbDR-SipcPACqgHt5hzr-6" target="vbDR-SipcPACqgHt5hzr-6">
          <mxGeometry width="50" height="50" relative="1" as="geometry">
            <mxPoint x="533.6605080756885" y="620" as="sourcePoint" />
            <mxPoint x="533.6605080756885" y="640" as="targetPoint" />
            <Array as="points">
              <mxPoint x="540" y="620" />
            </Array>
          </mxGeometry>
        </mxCell>
        <mxCell id="vbDR-SipcPACqgHt5hzr-21" value="&lt;font style=&quot;font-size: 14px;&quot;&gt;a&lt;/font&gt;" style="endArrow=classic;html=1;rounded=0;" edge="1" parent="1" source="vbDR-SipcPACqgHt5hzr-6" target="vbDR-SipcPACqgHt5hzr-3">
          <mxGeometry width="50" height="50" relative="1" as="geometry">
            <mxPoint x="364" y="536" as="sourcePoint" />
            <mxPoint x="416" y="484" as="targetPoint" />
          </mxGeometry>
        </mxCell>
        <mxCell id="vbDR-SipcPACqgHt5hzr-22" value="&lt;font style=&quot;font-size: 14px;&quot;&gt;a&lt;/font&gt;" style="endArrow=classic;html=1;rounded=0;" edge="1" parent="1" source="FYB1tNpZg5OryoRXFsR8-8" target="vbDR-SipcPACqgHt5hzr-6">
          <mxGeometry width="50" height="50" relative="1" as="geometry">
            <mxPoint x="374" y="546" as="sourcePoint" />
            <mxPoint x="426" y="494" as="targetPoint" />
          </mxGeometry>
        </mxCell>
        <mxCell id="vbDR-SipcPACqgHt5hzr-23" value="&lt;font style=&quot;font-size: 14px;&quot;&gt;b&lt;/font&gt;" style="endArrow=classic;html=1;rounded=0;edgeStyle=orthogonalEdgeStyle;curved=1;" edge="1" parent="1" source="FYB1tNpZg5OryoRXFsR8-8" target="FYB1tNpZg5OryoRXFsR8-8">
          <mxGeometry width="50" height="50" relative="1" as="geometry">
            <mxPoint x="550" y="350" as="sourcePoint" />
            <mxPoint x="550" y="370" as="targetPoint" />
            <Array as="points" />
          </mxGeometry>
        </mxCell>
        <mxCell id="vbDR-SipcPACqgHt5hzr-24" value="&lt;font style=&quot;font-size: 14px;&quot;&gt;a,b&lt;/font&gt;" style="endArrow=classic;html=1;rounded=0;" edge="1" parent="1" source="vbDR-SipcPACqgHt5hzr-3" target="FYB1tNpZg5OryoRXFsR8-8">
          <mxGeometry width="50" height="50" relative="1" as="geometry">
            <mxPoint x="350" y="450" as="sourcePoint" />
            <mxPoint x="350" y="410" as="targetPoint" />
          </mxGeometry>
        </mxCell>
      </root>
    </mxGraphModel>
  </diagram>
</mxfile>
